<svg width="103" height="17" viewBox="0 0 103 17" fill="none" xmlns="http://www.w3.org/2000/svg">
<path d="M3.7249 0.724975C4.1749 0.724975 4.6249 1.12498 4.9749 1.37498C5.2249 1.54997 5.4499 1.62498 5.7499 1.54997C6.8249 1.29997 7.8499 1.29997 8.8499 1.79997C8.9749 1.84998 9.3999 1.92497 9.7499 1.92497C10.6999 1.92497 11.0999 2.32498 11.9999 2.59997C12.9249 2.89998 13.4499 3.59997 13.7249 4.49998C13.7499 4.62498 13.6999 4.74998 13.6499 4.89998C13.5999 5.07498 13.4999 5.24998 13.4249 5.47498C13.2249 6.02498 13.2499 6.09997 13.7499 6.34998C13.8249 6.37498 13.8749 6.39998 13.9249 6.39998C14.8999 6.39998 15.2999 7.34998 15.6249 8.12498C15.7999 8.57498 15.7999 9.27498 15.5749 9.72498C15.0999 10.625 14.6249 11.55 13.8999 12.25C13.3749 12.75 12.6999 13.1 12.0249 13.35C11.3999 13.6 10.6249 13.95 9.9499 14C9.1749 14.05 8.3749 14.1 7.5749 14.125C7.0499 14.15 6.9499 14.225 7.0249 14.75C7.0749 15.225 7.0999 15.7 6.8999 16.15C6.6499 16.675 5.5999 16.525 5.4499 16.475C4.7749 16.3 4.3499 15.65 4.3749 15.175C4.3999 14.375 3.9999 13.925 3.4499 13.975C3.2999 14 2.7999 14 2.6749 14.05C2.6249 14.075 1.9499 14 1.6999 13.6C1.1249 12.675 1.1999 11.775 2.4499 11.4C2.6249 11.35 2.7499 11.3 2.8999 11.25C3.1249 11.2 3.2249 11.05 3.1999 10.85C3.1249 10.25 3.1999 9.87498 3.1249 9.27498C2.9999 8.47498 2.8749 7.67498 2.7749 6.87498C2.7249 6.47498 2.6249 6.39998 2.2499 6.64998C1.7499 6.97498 1.2499 6.84997 0.774902 6.62498C0.124902 6.29998 -9.7651e-05 5.87498 0.324902 5.22497C0.674902 4.49998 1.1499 3.82498 1.9499 3.47498C2.5249 3.19997 2.6749 2.82497 2.5499 2.09997C2.4749 1.62498 2.7999 0.974975 3.2249 0.799975C3.3749 0.724975 3.5749 0.724975 3.7249 0.724975ZM5.7999 4.99997C5.7499 5.64998 5.4999 6.04998 6.6749 6.07498C7.2999 6.09997 8.0749 5.74997 8.8499 5.64998C8.9499 5.62497 9.0249 5.57497 9.0999 5.49998C9.3999 5.29998 9.3999 5.04997 9.2999 4.79998C9.2249 4.54998 8.9499 4.52498 8.6749 4.49998C8.2499 4.42497 7.8249 4.39998 7.4499 4.27498C7.0499 4.17498 5.9499 4.37497 5.8249 4.72498C5.7999 4.79998 5.7999 4.87497 5.7999 4.99997ZM7.2499 8.89998C6.9499 9.12498 7.2749 9.94998 7.3249 10.25C7.3749 10.525 7.5499 10.675 7.8499 10.575C8.2999 10.425 8.7749 10.425 9.2499 10.525C9.2999 10.525 9.4249 10.525 9.5249 10.475C10.0999 10.3 10.5249 9.92498 10.9999 9.57498C11.2499 9.37498 11.1999 8.84998 10.9499 8.77498C10.3499 8.62498 9.9249 8.67498 9.2749 8.77498C8.9999 8.77498 8.7499 8.79998 8.4749 8.79998C8.1499 8.79998 7.8749 8.77498 7.5499 8.82498C7.4749 8.82498 7.3499 8.84998 7.2499 8.89998ZM25.7077 5.74997C25.7077 5.24998 25.4077 5.17497 25.0827 5.24998L23.9577 5.47498C23.7077 5.52497 23.4327 5.57497 23.2077 5.72498C23.1077 5.79997 22.7827 6.02498 22.9327 6.17498C23.0077 6.22498 23.0577 6.24998 23.1077 6.24998C23.5827 6.24998 24.4327 6.62498 24.9577 6.47498C25.1327 6.42498 25.2327 6.24998 25.3577 6.12498C25.4827 5.99998 25.7077 5.94998 25.7077 5.79997V5.74997ZM18.2827 3.99998C18.2827 3.34998 18.5827 2.67497 19.1827 2.39998C19.6577 2.19998 20.2577 2.34997 20.8077 2.54998C21.2327 2.67497 21.6077 2.79997 22.0077 2.89998C22.1327 2.94997 22.2327 2.97498 22.3827 2.97498C22.5827 2.97498 22.7327 2.82497 22.8827 2.69997C23.4327 2.29998 24.0827 2.19998 24.7327 2.12497C25.1077 2.09997 25.4327 2.09997 25.7827 2.04998C26.1577 1.99997 26.5327 1.89997 26.9077 1.92497C27.1327 1.94998 27.3577 2.02497 27.5827 2.12497C27.8327 2.22497 28.0827 2.34997 28.3077 2.54998C28.7327 2.87498 29.0327 3.39998 29.1827 3.92498C29.3077 4.37497 29.4577 4.87497 29.4577 5.39997C29.4577 5.69997 29.4327 5.97497 29.3077 6.19998C29.2077 6.49997 29.0077 6.69998 28.7577 6.94998L27.7327 7.99997C27.6827 8.04998 27.6077 8.12498 27.5827 8.24998C27.5577 8.42498 27.7577 8.57498 27.9077 8.64998C28.1827 8.79998 28.4577 8.94998 28.7577 9.02498C28.9077 9.04998 29.0577 9.07498 29.2077 9.12498C29.3327 9.17498 29.4577 9.24998 29.5827 9.34998C30.0327 9.72498 30.5327 10.125 31.0327 10.525C31.2327 10.7 31.4577 10.875 31.5827 11.125C31.7577 11.5 31.6577 11.925 31.4327 12.275C31.1827 12.575 30.8327 12.825 30.4327 12.975C30.2327 13.075 29.9577 13.15 29.7327 13.125C29.4327 13.075 29.1827 12.875 28.9077 12.775C28.2077 12.5 27.3077 12.925 26.6827 12.525C26.2827 12.275 26.0827 11.775 25.7077 11.475C25.4077 11.225 25.3077 10.975 24.9827 10.75C24.7327 10.625 24.6077 10.25 24.4077 10.025C24.3327 9.94998 24.1827 9.79998 24.0577 9.82498C23.9327 9.87498 23.7827 10.275 23.7827 10.4C23.7827 10.525 23.9077 10.65 23.9827 10.775C24.3077 11.275 24.5327 11.95 24.5327 12.55C24.5327 12.8 24.4577 13 24.4577 13.225C24.4577 13.475 24.5077 13.725 24.4827 13.95C24.4577 14.2 24.4077 14.425 24.2577 14.625C24.0077 15.05 23.5327 15.225 23.1327 15.425C22.7577 15.575 22.4077 15.7 22.0327 15.625C21.6327 15.525 21.3827 15.2 21.2327 14.85C21.0827 14.5 21.0077 14.125 20.9327 13.725C20.5577 11.775 19.4827 9.99998 19.0327 8.04998C18.8827 7.32498 18.7827 6.57498 18.6327 5.84998C18.4577 5.22497 18.2827 4.62498 18.2827 3.99998ZM32.0827 4.89998C32.0327 4.47497 32.4577 4.12497 32.7077 3.77497C32.9077 3.44997 33.0077 3.04998 33.2077 2.74998C33.4827 2.39998 33.9327 2.22497 34.3077 2.09997C34.9577 1.87497 35.6327 1.74997 36.3077 1.62498C36.7827 1.52497 37.2577 1.42497 37.7077 1.42497C38.0077 1.42497 38.3077 1.44997 38.6077 1.34998C38.8577 1.27498 39.1077 1.09997 39.3577 0.999974C39.8827 0.824975 40.3827 0.999974 40.8577 1.12498C41.3077 1.24998 41.7077 0.949975 42.1327 0.924975C42.6827 0.899975 43.2077 1.29997 43.3827 1.82498C43.5327 2.32498 43.8827 3.44997 43.4327 3.74998C43.2327 3.87498 43.0327 3.94997 42.8327 4.07497C42.5327 4.27498 41.7827 4.09998 41.4577 4.24997C41.2827 4.32498 41.0577 4.37497 40.8577 4.42497C40.4327 4.52498 40.0827 4.77497 39.6577 4.94997C38.9577 5.27498 38.1827 5.24998 37.4077 5.24998C37.2327 5.24998 37.0077 5.29998 36.8827 5.42498C36.8327 5.47498 36.8327 5.57497 36.8327 5.67498C36.8327 5.99998 37.0327 6.17498 37.0327 6.52498C37.0327 6.59998 37.0327 6.67497 37.0827 6.74998C37.1827 6.87498 37.3327 6.87498 37.4827 6.87498C38.8827 6.87498 39.1577 6.57498 40.5327 6.19998C41.5327 5.92497 41.9577 6.24998 42.1577 6.37498C42.5827 6.59998 42.9827 7.62498 42.7827 8.04998C42.5327 8.67498 41.7827 8.87498 41.1577 9.07498C40.1827 9.37498 39.1077 9.44998 38.1077 9.32498C37.8577 9.29998 37.5327 9.22498 37.3827 9.42498C37.3077 9.54998 37.3077 9.67498 37.3077 9.82498C37.3077 10.25 37.4827 11.35 37.9327 11.45C38.0827 11.475 38.2327 11.45 38.3577 11.4C38.9827 11.3 39.6077 11.2 40.2077 11.125C40.5577 11.075 40.8827 11.025 41.1827 11.175C41.3577 11.25 41.4577 11.4 41.6577 11.525C42.0827 11.75 42.7327 11.525 43.1077 11.85C43.3077 12.05 43.3327 12.4 43.2577 12.65C43.1577 12.95 42.9827 13.175 42.7827 13.4C42.5577 13.65 42.3077 13.9 41.9827 14.075C41.4827 14.325 40.9327 14.25 40.4077 14.25C40.2077 14.25 40.0327 14.225 39.8577 14.225C39.3077 14.225 38.7827 14.325 38.2827 14.525C38.0327 14.625 37.7327 14.775 37.4577 14.8C36.5827 14.875 35.9077 13.95 35.0077 13.8C34.8327 13.775 34.6577 13.75 34.4827 13.7C34.2577 13.6 34.1077 13.4 34.0077 13.175C33.7077 12.625 33.6827 12 33.6327 11.375C33.5577 10.275 33.5577 8.52497 33.4327 7.39998C33.3577 6.84997 33.2577 6.27497 32.8827 5.87498C32.5827 5.54998 32.1327 5.32498 32.0827 4.89998ZM53.6577 7.09998C54.2577 7.02497 54.9577 6.87498 54.4077 6.22498C54.1077 5.82498 53.7327 5.49998 53.3077 5.24998C53.2327 5.19998 53.1327 5.14998 53.0327 5.14998C52.9327 5.14998 52.8077 5.22497 52.7077 5.29998C52.2577 5.69997 51.8327 6.12498 51.4577 6.57498C51.4077 6.64998 51.3577 6.72497 51.3577 6.79998C51.3577 6.84997 51.4077 6.89997 51.4577 6.92498C51.6827 7.12498 51.9827 7.19997 52.2827 7.22498C52.5577 7.22498 52.8577 7.19997 53.1577 7.14998C53.2827 7.12498 53.4577 7.12498 53.6577 7.09998ZM45.6827 9.34998C45.6077 8.92497 45.7077 8.44998 45.9577 8.09998C46.8827 6.74998 47.5827 7.74998 47.8577 7.22498C48.3327 6.24998 48.6577 5.19998 49.1077 4.17498C49.2827 3.74998 49.4827 3.29998 49.8577 2.99998C50.1577 2.69997 50.5827 2.54998 50.9577 2.39998C52.8077 1.72498 54.9577 1.47498 56.3827 3.07498C56.7327 3.47498 56.9577 3.97498 57.1827 4.47497C57.6327 5.49998 58.0827 6.59998 58.3077 7.72498C58.4327 8.27498 58.4577 8.84998 58.4577 9.42498C58.4577 9.99998 58.4577 10.6 58.5327 11.175C58.6327 12.175 58.3827 13.125 57.7827 13.95C57.5577 14.25 57.3077 14.525 56.9577 14.675C56.6577 14.825 56.2577 14.875 55.9327 14.725C55.7327 14.625 55.5327 14.45 55.3827 14.3C55.1327 14.025 54.8577 13.725 54.8577 13.35C54.8577 13.175 54.9577 13.025 55.0077 12.85C55.0577 12.65 55.0577 12.45 55.0827 12.25C55.1327 11.875 55.7577 9.22498 54.8327 9.67498C53.9077 10.125 52.8827 10.5 51.8577 10.5C51.7577 10.5 51.6327 10.525 51.5577 10.6C51.4327 10.675 51.3577 10.825 51.3327 10.95C51.0827 12.1 51.3827 13.375 50.4327 14.075C50.1827 14.25 50.1077 14.4 49.8827 14.6C49.7827 14.675 49.5327 14.725 49.4077 14.8C49.1077 14.975 48.2827 14.8 48.0327 14.55C47.7827 14.325 47.6327 14.025 47.3827 13.775C47.1577 13.55 46.8577 13.375 46.6827 13.1C46.5577 12.85 47.0577 11.475 47.0577 11.175C47.0577 10.45 45.9577 10.95 45.6827 9.34998ZM60.2077 3.59997C60.4577 2.87498 61.1577 2.39998 61.5077 2.39998C62.2827 2.32498 62.6327 2.79997 63.4077 2.74998C63.7577 2.72497 64.0327 2.77498 64.2577 2.29998C64.3577 2.07498 64.4827 1.49998 65.4077 1.29997C65.9327 1.17497 66.3827 1.34998 66.6827 1.54997C67.9077 2.39998 66.9577 2.92497 68.0577 2.92497C68.3827 2.92497 69.8327 2.84998 70.1577 2.94997C71.3327 3.27497 71.6827 4.64997 71.7327 5.07498C71.8077 5.62497 71.4327 6.17498 70.9577 6.47498C70.4577 6.77498 70.3827 6.84997 69.8077 6.89997C69.2327 6.94998 68.6577 6.89997 68.1077 7.07497C67.9827 7.09998 67.9077 7.09998 67.8077 7.19997C67.6827 7.32498 67.6827 7.57498 67.6827 7.74998C67.6827 9.72498 67.1577 11.725 66.1577 13.425C65.8327 13.95 65.4827 14.725 64.3827 14.65C63.7827 14.6 63.1577 14.55 62.8327 14.05C62.5577 13.625 62.5577 13.05 62.5827 12.525C62.7577 10.675 63.4577 8.92497 64.0327 7.14998C64.0577 6.99998 64.1077 6.82498 64.0577 6.64998C63.9327 6.34998 63.4577 6.34998 63.0827 6.37498C63.0577 6.37498 62.9827 6.39998 62.9327 6.39998C61.8577 6.39998 60.8077 5.87498 60.2577 4.94997C59.9827 4.52498 59.8827 3.94997 60.2077 3.59997ZM93.5997 11.425L94.5497 11.475H94.6247C95.0497 11.475 95.4997 11.5 95.8997 11.375C96.0997 11.3 96.2747 11.225 96.4747 11.2C96.6497 11.175 96.8247 11.225 96.9997 11.225C97.4247 11.225 97.8497 11 98.2747 10.875C99.0747 10.625 99.6997 11.125 100.35 11.575C100.725 11.825 100.95 12.3 100.925 12.675C100.9 13.075 100.7 13.525 100.275 13.75C99.9497 13.9 99.6247 14.175 99.1997 14.1C98.7497 14.025 98.3497 14.25 97.9747 14.4C97.1247 14.775 96.2497 14.975 95.3747 15.15C93.8747 15.475 92.0747 15.3 90.7497 14.625C90.5247 14.525 90.2747 14.375 90.0747 14.2C89.4997 13.7 89.2997 12.05 89.3747 11.275C89.3997 10.95 89.3747 10.625 89.2747 10.3C89.1497 9.92498 89.3997 9.57498 89.5247 9.22498C89.5997 8.94998 89.4997 8.89998 89.2997 8.84998C89.0747 8.77498 88.8497 8.64998 88.6247 8.59998C88.1997 8.47498 88.0497 8.22498 87.8997 7.79998C87.7747 7.42497 87.6747 6.99998 87.9497 6.64998C88.0497 6.49997 88.1997 6.39998 88.3247 6.24998C88.4247 6.09997 88.4997 5.89998 88.6747 5.79997C88.9997 5.62497 89.3247 5.89998 89.6497 5.94998C89.9997 5.99998 90.2997 5.89998 90.4747 5.54998C90.7747 4.94997 90.9497 3.62497 91.0997 2.97498C91.1997 2.49997 91.4247 2.19998 91.7247 1.89997L92.4497 1.17497C92.9747 0.649974 93.5747 0.374975 94.3247 0.224975C94.7247 0.124975 95.1747 -2.48551e-05 95.6247 -2.48551e-05C96.1247 -2.48551e-05 96.5747 0.249975 97.0747 0.299974C97.4997 0.324975 97.9497 0.199976 98.3247 0.399974C98.6497 0.549976 98.9247 0.999974 99.3747 0.824975C99.4497 0.799975 99.5497 0.724975 99.6497 0.699975C99.8997 0.649974 100.125 0.899975 100.35 1.02498C100.625 1.19997 100.95 1.22497 101.225 1.42497C101.325 1.49998 101.4 1.57497 101.5 1.64997L101.725 1.77497C101.95 1.92497 101.925 2.19998 101.925 2.44997C101.925 3.54997 102.275 3.94997 101.275 4.42497C101.025 4.54998 100.725 4.59997 100.475 4.72498C100.275 4.82497 100.15 4.77497 99.9497 4.72498C98.9997 4.44998 97.7247 3.89997 96.8247 4.42497C96.4497 4.62498 96.1497 4.64997 95.7497 4.47497C95.1997 4.22498 94.9997 5.12497 94.5997 5.57497C94.2997 5.92497 94.3247 6.09997 94.7747 6.29998C95.7247 6.74998 96.6747 6.89997 97.7247 6.79998C98.1747 6.77498 98.5247 6.77498 98.6747 7.24997C98.7997 7.64998 98.7247 8.17497 98.6247 8.57498C98.4997 9.09997 97.9997 9.52498 97.5997 9.84998C97.1747 10.175 96.6497 9.89998 96.1497 10.025C96.0747 10.05 95.9497 9.99998 95.8747 9.94998C95.3497 9.49998 94.5747 10.1 93.9247 9.82498C93.6247 9.69998 93.2497 9.52498 93.0247 9.74998C92.9497 9.82498 92.9247 9.89998 92.8997 9.99998C92.8247 10.325 92.8497 10.7 92.9747 11.025C93.0247 11.15 93.0997 11.275 93.2247 11.35C93.3247 11.425 93.4747 11.425 93.5997 11.425ZM73.9247 13.075C73.6747 12.725 73.9747 12.525 74.0497 12.275C74.2247 11.675 74.3247 11.075 74.3247 10.45C74.3247 9.67498 74.2997 8.89998 74.2997 8.12498C74.2997 7.74998 74.3497 7.34998 74.1247 7.02497C74.0747 6.94998 74.0497 6.82498 74.0747 6.74998C74.5497 5.72498 74.2497 4.64997 74.2997 3.59997C74.3247 3.14997 74.4247 2.77498 74.7747 2.47497C75.0747 2.19998 75.3247 1.92497 75.5997 1.64997C75.8247 1.42497 76.0497 0.999974 76.3997 1.09997C76.9747 1.24998 77.6247 1.34998 77.9747 1.97498C78.0247 2.07498 78.0997 2.22497 78.0997 2.37497V3.52498C78.0997 3.89997 78.1497 4.42497 77.9247 4.92498C77.7747 5.22497 77.8247 5.59998 77.8247 5.92497C77.8247 6.19998 78.0997 6.47498 78.3747 6.49997C78.6997 6.52498 79.0497 6.52498 79.3997 6.52498C80.0497 6.52498 80.7247 6.44997 81.3497 6.79998C81.5247 6.89997 81.7247 6.82498 81.8247 6.59998C81.8997 6.39998 82.0997 6.17498 82.0997 5.94998C82.0997 4.99997 82.5747 4.09998 82.4497 3.12498C82.3747 2.62498 82.6747 2.24997 83.0497 2.04998C83.5997 1.74997 84.1497 1.47498 84.6497 1.09997C84.8997 0.924975 85.4747 1.04998 85.7247 1.27498C86.2997 1.77497 86.3997 2.49997 86.5247 3.19997C86.6747 4.07497 86.3247 4.89998 86.1747 5.74997C86.0497 6.52498 85.6747 7.27498 85.4997 8.04998C85.3747 8.52497 85.3747 8.99998 85.3747 9.47498C85.3747 10.6 85.4747 12.025 84.9247 12.975C84.7997 13.175 84.6747 13.375 84.4997 13.55C84.3497 13.7 83.6747 13.75 83.4747 13.775C83.1747 13.825 82.8997 13.825 82.5997 13.8C82.1747 13.775 81.5997 13.325 81.5997 12.9C81.5997 12.125 81.1747 11.425 81.2747 10.625C81.3247 10.325 81.1747 10.15 80.8747 9.97498C80.4997 9.77498 80.1497 9.72498 79.7747 9.77498C79.5247 9.79998 79.2997 9.89998 79.0997 9.99998C78.7997 10.125 78.3247 9.87498 78.1747 10.225C78.0497 10.5 78.1247 10.875 78.0997 11.225C78.0747 11.8 78.0497 12.35 77.8747 12.9C77.6997 13.525 77.2747 13.875 76.8747 14.275C76.7747 14.375 76.5997 14.4 76.4747 14.4C76.0497 14.4 75.5997 14.4 75.1747 14.425C74.7747 14.45 74.5497 14.2 74.2997 13.975C74.0247 13.725 74.1247 13.325 73.9247 13.075Z" fill="black"/>
</svg>
