<svg width="420" height="190" viewBox="0 0 420 190" fill="none" xmlns="http://www.w3.org/2000/svg">
<path d="M338.246 94.418C337.192 95.4727 336.796 97.4505 336.796 98.9008C336.664 101.142 336.796 104.043 334.686 105.625C333.764 106.021 332.841 106.416 332.313 107.207C327.962 113.009 321.106 113.668 314.777 114.723C310.163 115.382 305.548 114.854 301.329 111.031C300.406 110.24 299.219 109.712 297.769 109.844C289.199 110.767 283.398 107.339 278.651 101.933C277.069 100.087 277.728 97.846 279.706 96.2638C282.606 94.0224 285.903 93.3632 289.331 94.6816C291.968 95.0772 294.341 95.209 296.319 95.8683C299.351 96.9231 302.779 97.3186 305.152 98.5052C307.789 99.6919 309.24 101.67 312.404 102.065C317.81 102.593 321.765 100.087 325.457 96.5275C326.116 95.8683 326.644 94.9453 326.644 94.0224C326.907 90.3307 325.589 86.7708 323.084 83.079C322.688 82.5516 322.293 81.6287 322.161 80.9694C321.634 73.7178 319.656 71.6082 315.7 74.5089C313.195 76.2229 310.822 78.2006 308.053 79.7828C302.779 82.8153 295.659 80.5739 292.891 75.0363C291.968 72.9267 290.122 70.6853 289.594 68.312C289.463 67.7846 289.594 67.1254 289.858 66.4661C291.836 61.4559 291.44 56.0501 293.55 51.1717C294.605 48.6666 296.055 45.6341 298.56 43.3927C300.406 41.6787 302.515 41.0194 304.889 39.9646C307.658 38.5143 311.086 36.8003 313.854 36.6684C316.887 36.5366 319.128 37.9869 321.106 40.3602C324.139 44.0519 328.885 47.7437 328.885 52.7539C328.885 59.2145 330.204 64.884 332.181 70.949C332.841 73.0585 334.555 74.6407 335.609 76.6184C337.587 80.3102 339.829 84.3975 340.356 88.3529C340.488 89.6714 340.356 91.1217 339.829 92.4402C339.433 93.0995 338.774 93.8906 338.246 94.418ZM302.252 65.2795C302.384 66.598 303.438 67.6528 304.757 67.6528C307.394 67.5209 312.8 63.961 313.459 61.7196C314.25 59.2145 315.041 56.4457 315.437 53.8087C315.568 53.0176 315.173 51.6991 314.646 51.4354C313.591 51.0399 312.14 50.7762 311.349 51.3036C306.339 54.2043 301.593 59.0826 302.252 65.2795Z" fill="#FAF6E6"/>
<path d="M282.655 72.9267C282.655 73.7178 281.996 74.5089 281.6 74.6407C279.622 75.5637 277.645 76.4866 275.667 76.7503C269.206 77.937 269.206 69.4987 268.02 65.1477C265.91 57.5005 262.087 50.9081 256.153 46.0297C253.912 44.1838 251.011 46.9526 249.561 48.9303C244.815 56.0501 240.332 63.3018 237.958 71.6082C236.772 75.1681 232.157 78.9917 228.597 75.9592C226.356 73.586 222.664 70.1579 224.905 66.598C225.828 65.0158 225.697 62.9063 226.62 61.1922C227.147 60.1374 227.279 58.819 227.015 57.6323C225.828 53.9406 225.697 49.8533 225.433 45.8978C225.301 44.7112 226.751 42.7335 228.202 41.415C229.652 40.0965 231.762 39.8328 233.212 41.1513C235.058 42.6016 236.244 44.9749 237.167 46.6889C237.431 46.9526 238.881 47.6119 239.541 46.2934C241.65 41.9424 242.705 37.5914 244.815 35.4818C248.243 31.9219 252.725 32.0538 256.022 32.8449C258.263 33.2404 260.636 33.7678 262.878 35.4818C265.383 37.5914 267.361 40.8876 269.734 44.3157C272.107 47.7437 274.876 51.3036 276.986 55.1272C277.513 56.0501 277.513 57.6323 278.304 58.4234C281.864 62.247 282.919 67.7846 282.655 72.9267Z" fill="#FAF6E6"/>
<path d="M210.591 61.8525C208.085 64.2257 209.14 68.5767 209.799 72.7959C210.195 76.4876 210.195 80.0475 207.822 82.2889C205.317 84.9259 201.229 85.1896 198.592 82.9482C197.01 81.7615 195.428 80.1794 194.769 78.4653C194.373 77.2787 195.56 75.4328 195.824 73.7188C197.274 67.1264 195.692 60.534 197.933 53.9416C198.988 51.0409 198.592 48.0084 197.01 45.1077C194.769 40.6249 201.361 39.5701 204.526 39.5701C205.448 39.5701 206.371 40.0975 207.031 40.7568C208.613 42.7345 210.591 44.5803 211.645 47.0855C212.568 49.3269 212.305 51.7002 212.436 54.0734C212.436 57.1059 212.7 59.8747 210.722 61.8525C210.722 61.9843 210.591 61.8525 210.591 61.8525ZM192.132 18.87C193.055 18.0789 193.714 16.8922 194.901 16.1011C197.933 13.8597 204.394 15.3101 204.789 18.87C204.921 20.0566 204.13 21.5069 203.734 22.6935C203.603 23.0891 204.394 24.2757 204.789 26.649L204.921 27.4401C205.053 28.0993 204.526 28.4949 204.394 29.1541C203.339 32.8459 197.274 31.3955 194.505 30.6044C193.318 30.2089 192.659 29.1541 192.396 27.9675C191.868 24.935 189.099 21.6388 192.132 18.87Z" fill="#FAF6E6"/>
<path d="M185.07 60.1373C185.334 64.6201 182.565 68.8392 178.082 69.3666C176.632 69.6303 175.445 68.9711 174.522 67.6526C173.072 65.543 172.281 63.1698 172.677 60.401C173.072 55.7863 171.358 51.699 170.04 47.348C169.38 45.1066 166.348 45.3703 165.293 47.0843C162.392 52.0945 158.569 56.4455 157.25 62.3787C156.855 64.0927 155.273 65.543 153.295 65.4112C148.021 64.8838 146.702 62.5105 146.834 60.0054C147.098 55.2589 147.098 48.9302 143.274 45.7658C141.033 44.0518 139.451 50.2486 138.792 51.3034C137.605 54.4678 136.286 57.764 135.232 61.0602C133.781 65.0156 132.727 69.3666 127.584 71.6081C122.706 73.5858 121.388 65.0156 120.728 61.1921C120.465 60.1373 120.992 59.0825 121.519 58.0277C124.156 54.7315 122.311 50.2487 123.365 46.6887C124.156 44.3155 124.947 41.9422 128.244 41.5467C131.276 41.283 134.177 39.8326 135.363 36.8001C135.495 36.009 135.891 35.3498 136.55 34.8224C138.792 33.2402 141.033 31.6581 143.143 30.0759C143.538 29.8122 144.197 29.8122 144.725 29.944C148.548 30.3396 151.449 32.8447 152.108 36.932C152.504 38.646 153.69 42.4696 155.668 41.8104C159.492 40.4919 160.81 36.009 163.975 33.7676C166.348 32.0536 168.721 31.9218 170.831 32.0536C171.885 32.1854 172.94 31.7899 173.995 32.1854C175.182 32.7128 176.236 33.8995 177.159 35.218C178.214 36.8001 177.819 40.0963 178.61 41.9422C180.587 46.2932 182.038 50.1168 183.224 53.0175C184.279 55.3907 184.807 57.6321 185.07 60.1373Z" fill="#FAF6E6"/>
<path d="M82.8441 41.2838C83.767 40.3609 85.0855 40.0972 86.5358 39.3061C87.8543 38.6469 89.3046 37.4602 90.6231 37.3284C93.2601 37.0647 95.5015 38.2513 98.1385 39.1743C102.753 40.7564 106.445 44.1845 109.873 47.0851C112.51 49.4584 115.674 52.2272 116.861 55.7871C118.179 59.4789 117.52 63.698 114.488 67.2579C111.455 70.5541 111.06 73.9822 107.5 75.828C104.072 77.6739 97.4792 77.9376 93.5238 78.8606C89.832 79.7835 86.0084 79.2561 82.5804 77.2784C81.5256 76.751 80.4708 75.9599 79.2842 75.5644C76.7791 74.7733 74.4058 73.7185 73.0873 72.2681C71.2414 70.1586 71.2414 67.5216 70.3185 64.621C69.6592 62.6432 68.0771 60.5337 67.6815 58.5559C67.0223 54.996 66.8904 51.568 64.7809 48.7992C63.4624 47.0851 64.1216 45.503 65.7038 43.9208C66.8904 42.7342 68.3408 42.9979 69.9229 42.4705C71.9007 41.8112 73.8784 40.6246 75.8561 40.8883C78.6249 41.152 81.13 43.1297 82.8441 41.2838ZM79.416 56.7101C80.4708 59.6107 81.6574 62.7751 84.5581 64.3573C88.118 66.335 92.2053 68.1809 96.4244 67.2579C96.6881 67.2579 97.0837 67.1261 97.4792 66.8624C99.5888 65.9394 102.489 64.4891 104.072 62.6432C105.522 60.9292 104.995 58.4241 103.412 56.9738C99.8525 53.5457 96.1607 54.6005 92.6008 52.8865C92.2053 52.6228 88.3817 52.4909 87.9861 52.4909C85.7447 52.4909 83.5033 52.7546 81.6574 53.0183C80.3389 53.1502 78.8886 55.5234 79.416 56.7101Z" fill="#FAF6E6"/>
<path d="M38.5839 82.8153C32.7826 81.2331 27.3768 79.7828 22.7621 75.0363C15.2467 67.1254 8.91803 58.6871 2.06193 50.117C1.13899 48.9303 0.611595 47.0845 0.21605 45.5023C-0.0476461 44.5793 -0.179494 42.8653 0.479747 41.9424C3.51226 37.9869 4.83074 33.1085 7.59955 28.8894C9.84097 25.0658 11.4231 20.583 13.4009 16.3638C13.9283 15.1772 14.7194 14.1224 15.6423 13.3313C21.4436 8.58478 27.9042 4.76118 35.2877 2.91531C36.3425 2.65161 37.7928 2.25607 38.9794 2.25607C43.5941 2.25607 48.3406 2.25607 52.6916 0.410199C53.8783 -0.117195 55.1967 0.0146484 56.6471 0.0146484C57.7019 0.0146484 59.0203 0.0146499 60.207 0.542044C61.7892 1.20128 62.9758 2.12422 63.2395 3.7064C63.5032 5.81597 63.8987 8.05739 63.635 10.167C63.3713 12.8039 61.2618 14.7816 58.3611 14.7816C51.9005 14.7816 45.44 16.1001 38.9794 16.4957C33.0462 17.0231 28.8271 19.5282 25.7946 24.2747C23.2895 28.0983 21.8392 32.713 18.6748 36.1411C14.4557 40.3602 15.6423 43.6564 18.1474 47.48C22.1028 53.4132 25.7946 59.61 31.8596 63.961C34.101 65.5432 36.2106 66.2024 38.7157 66.2024H45.3081C46.7585 66.2024 48.3406 66.8617 49.791 67.5209C51.3731 68.1802 52.1642 69.3668 52.2961 71.2127C52.6916 76.0911 50.9776 78.728 46.6266 80.5739C45.1763 81.2331 43.5941 81.8924 42.2756 82.2879C41.089 82.5516 40.0342 83.2109 38.5839 82.8153Z" fill="#FAF6E6"/>
<path d="M419.962 179.982C419.962 180.773 419.302 181.565 418.907 181.696C416.929 182.619 414.951 183.542 412.974 183.806C406.513 184.993 406.513 176.554 405.326 172.203C403.217 164.556 399.393 157.964 393.46 153.085C391.219 151.239 388.318 154.008 386.868 155.986C382.121 163.106 377.638 170.357 375.265 178.664C374.078 182.224 369.464 186.047 365.904 183.015C363.662 180.642 359.971 177.214 362.212 173.654C363.135 172.071 363.003 169.962 363.926 168.248C364.454 167.193 364.585 165.875 364.322 164.688C363.135 160.996 363.003 156.909 362.74 152.954C362.608 151.767 364.058 149.789 365.508 148.471C366.959 147.152 369.068 146.888 370.519 148.207C372.364 149.657 373.551 152.031 374.474 153.745C374.738 154.008 376.188 154.668 376.847 153.349C378.957 148.998 380.012 144.647 382.121 142.537C385.549 138.978 390.032 139.109 393.328 139.901C395.57 140.296 397.943 140.823 400.184 142.537C402.69 144.647 404.667 147.943 407.041 151.371C409.414 154.799 412.183 158.359 414.292 162.183C414.82 163.106 414.82 164.688 415.611 165.479C419.171 169.303 420.225 174.84 419.962 179.982Z" fill="#FAF6E6"/>
<path d="M275.106 184.334C263.108 185.389 255.725 173.786 254.802 164.425C254.142 159.151 254.933 154.141 258.889 150.185C260.076 148.999 261.262 147.548 263.24 147.812C264.954 147.944 266.404 147.153 267.986 146.494C276.557 142.538 284.995 143.065 293.038 148.076C294.224 148.735 295.411 149.79 296.07 150.976C298.443 156.118 300.553 161.524 299.762 167.326C299.63 168.249 299.366 169.171 298.971 169.831L293.433 177.346C289.478 182.488 283.94 184.334 277.611 184.334H275.106ZM267.986 163.766C268.25 165.743 268.514 167.721 269.832 169.171C271.283 170.885 272.997 172.599 275.238 173.391C280.776 175.5 287.764 169.963 288.95 166.007C289.741 163.766 288.291 159.81 286.181 158.36C284.467 157.305 282.753 156.514 280.908 155.591C278.139 154.404 275.502 154.536 272.865 156.382C270.228 158.228 267.459 159.81 267.986 163.766ZM313.606 164.293C313.606 162.447 313.87 160.469 314.265 158.492C315.32 153.877 318.221 149.922 321.253 146.362C322.044 145.439 323.626 144.648 324.945 144.516C329.164 144.384 333.515 144.384 337.734 144.516C339.053 144.648 340.635 145.307 341.69 146.098C349.073 151.636 355.665 160.469 355.534 170.094C355.27 176.028 351.71 180.51 346.7 183.279C341.294 186.312 336.152 186.444 330.351 184.202C324.286 181.697 319.671 178.269 316.111 172.731C314.529 170.094 313.738 167.326 313.606 164.293ZM325.868 163.502C327.186 169.171 330.746 174.973 336.679 173.918L340.371 173.786C344.59 173.786 345.118 172.599 344.195 168.38C343.799 166.666 342.744 165.216 342.085 163.634C340.107 158.624 335.625 156.778 331.01 155.064C330.482 154.932 329.296 155.327 328.768 155.855C326.659 157.964 325.209 160.733 325.868 163.502Z" fill="#FAF6E6"/>
<path d="M191.872 175.633C193.586 173.128 194.509 169.7 197.146 168.117C200.178 166.14 203.079 169.963 205.716 171.018C209.012 172.468 212.176 173.919 215.341 175.237C218.109 176.292 220.615 176.028 222.856 173.391C225.361 170.623 228.13 167.986 230.767 165.481C231.294 164.689 231.558 163.766 231.822 162.844C232.349 160.866 231.294 158.756 229.58 158.229L220.087 156.383C217.055 155.46 211.517 155.065 207.693 150.582C207.034 149.659 205.848 148.736 204.661 148.472C196.75 146.89 196.354 140.034 194.113 134.232C193.717 133.046 193.717 131.596 193.981 130.673C195.959 125.135 197.014 118.938 202.419 115.378C204.002 114.06 205.056 111.95 206.77 110.5C207.957 109.313 209.935 108.786 211.385 107.731C216.527 103.38 222.592 102.062 228.921 102.721C231.426 102.853 233.799 103.644 236.436 103.907C241.183 104.567 245.006 106.808 248.039 111.027C249.885 113.269 251.335 115.642 251.335 118.279C251.731 122.102 251.994 125.662 252.785 129.486C253.708 133.441 251.731 137.133 249.094 139.77C248.83 140.034 247.907 140.298 247.38 140.298C245.534 140.298 243.556 140.297 241.71 139.902C238.941 139.375 237.491 137.133 237.755 134.364C237.887 131.859 238.414 129.486 238.678 126.849C238.546 125.267 238.15 123.816 237.359 122.498C235.909 120.652 233.931 118.806 232.085 117.224C230.108 115.51 227.207 114.719 225.097 115.906C217.846 118.674 211.913 123.025 209.276 130.804C209.012 131.596 209.012 132.123 209.012 132.782C209.012 134.628 209.539 136.606 211.253 137.529C215.077 139.506 218.901 141.616 222.988 143.594C224.043 143.989 225.229 144.121 226.68 143.989C231.294 143.462 235.909 143.989 240.26 146.758C241.578 147.681 243.82 147.813 245.402 148.34C246.325 148.736 246.984 149.527 247.116 150.318C247.38 153.087 247.512 155.987 247.512 158.624C247.512 160.338 246.852 161.789 246.193 163.239C244.347 167.59 241.315 171.809 238.414 175.633C234.722 180.379 230.503 184.598 226.416 188.949C225.888 189.477 224.834 189.872 223.911 189.872C221.274 190.004 218.373 190.004 215.472 189.741C214.286 189.609 213.099 189.213 211.913 188.818C207.562 186.708 203.342 184.335 197.805 184.335C195.563 184.335 193.454 182.621 192.135 180.116C191.476 178.797 190.685 177.215 191.872 175.633Z" fill="#FAF6E6"/>
</svg>
