<svg width="247" height="56" viewBox="0 0 247 56" fill="none" xmlns="http://www.w3.org/2000/svg">
<path d="M236.412 42.456C236.412 42.0589 236.478 41.8604 236.61 41.3972C236.875 40.4707 236.081 40.0736 236.081 39.081V38.4192C236.081 38.2206 235.75 37.2942 235.75 37.0295C235.75 35.5074 235.485 34.5809 236.346 33.3897C236.875 32.5956 238.265 31.7353 239.191 31.4044C240.118 31.1397 241.507 31.3382 242.434 31.4706C243.824 31.6029 244.287 32.0662 245.081 33.1912C245.875 34.3824 247 35.3089 247 36.7648C247 37.7574 246.471 38.7501 246.074 39.7427C245.478 41.0001 244.882 42.2575 244.353 43.581C243.824 44.6398 243.559 46.0296 242.434 46.6913C242.037 46.956 241.507 47.0884 240.978 47.2869C239.919 47.4854 239.522 48.2796 238.463 48.2796C238.132 48.2796 237.14 48.2134 236.809 48.081C236.412 48.0149 235.816 47.7502 235.485 47.4854C234.89 46.956 235.287 46.7575 234.691 46.1619C234.625 46.0957 234.559 46.0295 234.559 45.8972C234.559 45.7648 234.625 45.5001 234.757 45.434C235.419 44.9045 235.485 43.4486 236.147 42.7869C236.213 42.7207 236.412 42.6545 236.412 42.456Z" fill="#FAF6E6"/>
<path d="M232.55 31.4044C232.814 31.6691 233.079 31.9338 233.211 32.2647C233.741 33.3235 233.807 35.7721 233.013 36.8309C232.417 37.5589 231.623 38.2868 230.895 38.9486C230.167 39.7427 226.925 39.5442 226.197 38.9486C224.873 37.8898 224.542 37.6912 223.417 36.5662C222.623 35.9706 222.292 34.1838 221.498 33.5882C220.902 33.1912 220.042 33.125 219.38 33.4559C218.189 34.1177 217.395 35.7059 216.27 36.3015C214.748 37.0294 213.16 37.4265 211.505 37.3603C210.579 37.625 209.52 37.625 208.593 37.5589C206.939 37.3603 204.689 36.5 203.895 34.978C203.101 33.3897 201.976 31.7353 201.579 29.9485C201.248 28.2941 202.042 26.044 202.042 24.3234C202.042 21.9411 202.24 19.4925 202.505 17.1101C202.968 13.8674 207.204 12.5439 209.718 14.5292C211.373 15.9851 210.513 18.1028 210.711 20.0219C210.91 22.0072 209.851 24.0587 209.718 26.044C209.652 27.4999 210.513 28.4264 211.902 28.625C212.829 28.7573 214.086 29.0882 214.682 28.2279C215.608 26.9705 217.726 26.044 218.189 24.1249C218.454 22.9999 218.586 21.0808 218.917 19.8896C219.049 18.8307 218.851 17.3748 218.983 16.4484C219.182 15.3233 219.844 14.6616 220.241 13.9336C220.836 12.6763 221.961 11.0218 223.616 10.6909C224.675 10.4924 225.932 10.8895 227.586 11.6174C228.38 11.9483 228.844 12.6763 228.976 13.6027C229.108 14.7277 229.108 17.9704 228.91 19.0293C228.182 22.7352 227.255 25.1837 227.586 27.1691C227.785 28.2941 229.572 29.4191 230.3 29.8823C231.028 30.4779 231.888 30.8088 232.55 31.4044Z" fill="#FAF6E6"/>
<path d="M152.159 22.0735C152.159 23.2647 152.225 24.4559 151.564 25.7132C151.233 26.5074 151.895 27.5 152.689 27.5662C153.946 27.6324 155.203 27.6324 156.395 27.6324C156.659 27.6324 159.306 27.4338 159.571 27.2353C162.086 25.4485 161.821 23.2647 163.079 20.2867C163.277 19.8235 163.409 19.3602 163.542 18.8308C163.806 17.7058 163.476 17.044 163.74 15.919C164.005 15.0587 165.329 14.1984 166.057 13.9999C167.049 13.6028 168.174 13.5366 169.101 14.0661C170.027 14.4631 172.145 15.8528 172.145 17.3749C172.145 18.1029 172.476 18.8308 172.807 19.4264C173.005 19.9558 172.807 20.4191 172.807 20.8823C172.807 22.8015 172.079 24.4559 172.079 26.4412C172.079 26.7059 171.946 27.0368 171.748 27.2353C170.557 30.0148 170.16 33.2574 168.836 35.9707C168.637 36.1692 168.77 36.5663 168.637 36.831C168.307 38.4854 168.637 40.6693 167.446 41.8605C166.718 42.5884 166.189 43.5149 165.924 44.5737C165.13 47.287 162.88 48.6105 161.093 50.5959C160.101 51.787 158.512 51.39 157.453 52.4488C156.461 53.5738 155.468 54.1694 154.078 54.5003C153.02 54.765 151.828 54.9635 150.703 54.9635C149.843 54.9635 149.181 55.89 148.255 55.6915C147.395 55.5591 145.806 56.4194 145.078 55.6915C144.483 55.1621 143.821 54.8974 143.292 54.6327C142.431 54.1694 142.63 53.5738 142.034 52.7135C141.505 51.9856 141.174 49.3385 141.505 48.412L142.034 47.6179C143.093 46.4929 144.483 46.8238 146.071 46.2943C147.593 45.6987 149.115 45.5664 150.703 45.3017C151.233 45.2355 151.828 45.2355 152.424 45.2355C153.615 45.2355 154.476 44.8384 155.27 43.9781C156.13 43.0517 157.123 42.1914 157.851 41.0663C158.579 40.0075 158.843 38.6178 159.505 37.4928C159.704 37.1619 159.373 36.6325 158.976 36.7648C158.38 37.0957 157.718 37.0295 157.056 37.0957C156.064 37.1619 155.005 37.1619 154.012 37.559C153.02 37.956 151.696 37.956 150.637 37.2942C149.909 36.7648 149.181 36.4339 148.255 36.4339C145.872 36.4339 143.821 34.3824 143.424 31.3383C143.292 30.6765 142.895 30.0148 142.762 29.353C142.431 27.8971 143.027 26.5074 142.762 25.0515C142.63 24.2573 142.564 23.6618 142.696 22.9338C142.762 22.2059 142.696 21.5441 142.828 20.8161C143.424 18.3014 145.409 17.3087 147.395 16.3823C147.725 16.1837 148.321 16.1837 148.718 16.2499C150.042 16.7793 151.034 17.6396 151.828 18.9632C151.961 19.1617 152.159 19.4926 152.159 19.8235V22.0735ZM177.307 27.4338C177.638 26.1765 177.638 24.7206 178.101 23.6618C178.829 21.9411 179.557 20.2205 180.615 18.6323C181.013 18.1029 181.41 17.4411 181.939 16.9779C182.733 16.2499 183.66 15.8528 184.652 15.5881C185.182 15.4558 185.711 15.3896 186.241 15.1911C186.638 15.0587 186.968 14.794 187.498 15.0587C188.954 15.5881 190.542 15.5881 191.601 16.7132C192.461 17.5735 193.388 18.3676 194.579 18.897C196.564 19.8897 198.02 22.3382 198.02 24.6544V25.7132C198.02 27.9633 196.961 29.8824 195.572 31.7354C194.049 33.7207 191.402 35.6398 188.888 35.6398C188.424 35.6398 188.027 35.6398 187.63 35.706C187.432 35.7722 187.299 35.9045 187.101 35.9707C186.638 36.0369 186.307 35.706 185.91 35.6398C185.38 35.4413 184.851 35.5736 184.388 35.5736C183.66 35.5736 182.932 35.3751 182.27 35.1766C181.013 34.6472 179.821 33.7869 178.895 32.7942C178.233 31.9339 177.77 31.0736 177.77 29.8824C177.836 29.353 177.77 28.8236 177.439 28.2942C177.307 28.0294 177.24 27.7647 177.307 27.4338ZM185.579 27.103C185.579 27.3015 185.645 27.5 185.843 27.6986C185.91 27.7647 185.976 27.8309 186.174 27.8309C186.638 27.8309 186.968 28.0956 187.432 28.0956H187.763C187.961 28.0956 187.961 28.0294 188.094 27.9633L189.88 26.2427C190.079 26.0441 190.211 25.9118 190.277 25.7132C190.41 25.3824 190.277 25.1838 190.211 24.9191C190.013 23.8603 189.88 22.2059 188.358 22.2059C187.63 22.2059 186.704 22.6029 186.174 23.1985C185.579 23.9926 185.579 25.0515 185.579 26.1103V27.103Z" fill="#FAF6E6"/>
<path d="M116.787 13.8014C118.11 14.1985 118.971 17.5735 118.971 18.897C118.971 20.6838 116.787 21.4118 115.331 22.0735C114.603 22.3382 113.809 22.5368 113.081 22.7353C112.353 22.8677 111.757 22.8677 111.162 23C107.787 23.728 107.324 23.2647 105.206 26.1103C103.948 27.9633 103.154 29.5515 103.419 31.8016C103.551 32.5295 103.882 35.309 103.551 36.0369C102.559 38.2869 103.816 39.4119 101.301 40.3384C100.838 40.4708 98.8529 40.3384 98.4558 40.3384C98.0587 40.3384 97.6617 40.2722 97.3308 40.1399C96.5367 39.8752 95.0808 39.4119 94.6175 38.6178C94.0881 37.6913 94.1543 36.3678 94.1543 35.2428C94.0881 33.9192 93.7572 30.8089 93.7572 29.5515C93.8896 27.103 95.0808 25.9118 95.0808 23.4633C95.0808 22.0074 94.1543 21.0809 93.9558 19.4926C93.7572 18.1029 93.6249 16.7794 93.8896 15.3235C94.3528 13.272 96.3381 12.7426 98.0587 12.4778C99.2499 12.2793 101.963 12.544 102.294 13.669C102.559 14.397 102.89 15.0588 103.088 15.7867C103.287 16.4485 103.684 16.4485 104.147 16.1176C104.279 16.0514 104.412 15.8529 104.61 15.8529C105.735 15.2573 105.735 14.5293 106.993 14.397C108.051 14.3308 109.176 14.0661 110.235 13.9999C110.632 13.9999 110.831 13.9999 111.162 14.0661C112.552 14.3308 114.272 13.0073 116.787 13.8014Z" fill="#FAF6E6"/>
<path d="M81.1049 13.9337C82.8255 14.1323 84.48 14.6617 86.0682 15.3235C86.9285 15.522 87.5903 16.5808 88.1859 17.375C88.7815 18.3014 89.1124 19.4264 89.5094 20.4191C90.1712 22.2059 89.9727 24.0588 90.1712 25.9118C90.3697 27.8309 90.6344 30.478 90.6344 32.3972C90.5683 33.7207 90.4359 34.9781 90.3035 36.3678C90.1712 37.559 89.2447 38.0222 88.1859 38.4193C86.2006 39.2134 85.0094 38.9487 83.6197 37.4928C83.3549 37.2281 83.2888 36.831 83.2888 36.5002C83.2888 35.6398 83.2888 34.7795 82.7594 35.0443C82.2299 35.1766 81.2373 36.2354 80.9726 36.5002C78.127 39.0149 77.9946 39.4781 73.9578 38.9487C71.5754 38.6178 69.2592 39.0811 67.8033 37.0957C67.2739 36.5663 66.0165 34.7795 65.5533 34.3163C64.4945 33.1913 64.2298 31.7354 64.5606 30.1471C65.2224 26.9045 66.0165 23.728 67.8695 20.9485C69.3254 18.9632 70.5166 15.9852 72.7666 15.9852C73.7593 15.9852 74.5534 15.5882 74.8843 15.3896C76.8696 14.1985 78.9873 13.8014 81.1049 13.9337ZM73.0975 27.6986C72.7666 28.228 72.899 28.6251 73.2298 28.956C73.6931 29.2207 74.1563 29.8824 74.7519 29.9486C75.7446 30.081 77.0681 29.1545 77.7299 28.4927C78.0608 28.228 78.3917 27.8309 78.6564 27.6324C80.5093 27.0368 80.9064 26.0442 81.3035 24.6544C81.3035 23.3971 80.774 22.8015 79.9799 22.8677C79.0534 22.9338 78.2593 23 77.4652 23.5956C76.7372 24.125 76.0755 24.853 75.3475 25.1839C74.024 25.5147 73.6269 26.7059 73.0975 27.6986Z" fill="#FAF6E6"/>
<path d="M46.805 29.2206C46.4741 29.4853 46.408 29.8162 46.7389 30.4118C47.7977 31.2721 49.1212 31.0736 51.636 31.0736C52.4301 31.0736 53.6213 30.5442 54.283 30.0809C55.3419 29.2206 56.4669 27.9633 57.1948 26.7721C57.8566 25.5809 59.9743 25.7794 60.9669 26.1765C62.4228 26.7059 63.4817 29.4853 63.3493 30.9412C63.0184 33.1251 62.1581 34.3825 60.9008 36.1031C60.0405 37.1619 58.1213 37.7575 56.8639 38.1545C55.2757 38.7501 52.8933 39.1472 51.1065 39.3457C48.3271 39.8752 46.805 39.081 44.3565 37.7575C42.702 36.831 39.5255 37.2281 38.8638 35.3089C38.5991 34.8457 36.6137 32.7942 36.6137 30.8751C36.6137 28.228 34.6284 25.7132 35.952 23.3309C37.077 21.2132 37.1432 18.9632 38.4005 16.8455C39.3932 15.1249 42.5035 11.816 44.6212 11.419C46.408 10.9557 48.3271 10.2278 50.0477 10.6249C52.6286 11.2205 54.5478 12.2131 56.4007 13.9999C57.3934 14.9264 57.3934 16.5146 57.5919 17.772C57.7904 19.3602 58.1213 21.2132 57.3934 22.6691C56.5992 24.2573 55.011 26.1103 53.5551 27.103C52.6286 27.7647 51.636 28.0294 50.5771 28.5589C50.0477 28.8897 47.6653 28.7574 46.805 29.2206ZM44.1579 21.2794C44.0256 21.6764 44.0918 21.9411 44.2903 22.2059C44.3565 22.3382 44.555 22.4706 44.8197 22.5367C45.9447 23 46.805 22.6691 47.5992 21.875C48.1286 21.2132 48.9227 20.6176 49.4521 20.022C49.9815 19.4926 49.9154 18.6323 49.3859 18.1029C48.658 17.7058 47.4668 17.6396 46.7389 18.3014C45.8785 19.1617 44.555 20.022 44.1579 21.2794Z" fill="#FAF6E6"/>
<path d="M6.0502 10.4263C6.11638 9.56596 5.52079 8.77184 4.66048 8.63948C3.93254 8.44095 3.27076 8.17624 2.41046 8.11007C0.689856 7.91154 -0.170447 6.72035 0.0280842 5.06592C0.226616 3.47767 0.623679 2.28648 2.27811 1.82324C4.3296 1.29382 6.44727 1.55853 8.49876 0.830582C9.62377 0.499693 10.6826 -0.162079 11.8738 0.0364541C13.065 0.301163 14.6532 0.896758 15.7782 1.49235C16.9694 2.08795 19.7489 2.08795 20.8739 2.88207C23.1901 4.47032 24.3151 4.73503 26.4328 6.58799C26.896 6.98505 27.2931 7.38212 27.5578 7.91153C27.8225 8.44095 27.9548 9.1689 28.2195 9.76449C28.5504 10.4924 29.2784 11.088 29.6093 11.816C30.0725 12.6763 30.0063 13.6028 30.1387 14.4631C30.271 15.4557 31.6608 18.6322 31.8593 19.6249C32.3225 21.8749 31.7931 24.522 31.4622 26.8382L31.2637 28.4926C31.1975 29.9485 30.6681 31.1397 29.9401 32.3971C28.5504 34.8456 25.5725 36.103 23.521 38.0221C22.8592 38.6177 22.1974 39.0148 21.2709 39.081C18.8886 39.1471 16.7047 40.1398 14.3223 40.206C12.4032 40.206 10.6826 39.4118 8.69729 39.2133C6.77815 39.0148 4.99137 37.4265 3.86636 35.6398C2.8737 34.1839 3.13841 28.4926 3.40312 26.9044C3.86636 24.0588 4.46195 21.2131 4.92519 18.3675C5.25608 16.5146 5.52079 14.5954 5.85167 12.7425C5.98403 12.2792 5.98403 11.2866 6.0502 10.4263ZM12.9988 21.4117C12.9988 22.8014 13.065 24.1249 13.1312 25.4485C13.1973 26.4411 13.1973 27.5 13.3297 28.4926C13.3297 29.2206 13.5282 29.8823 14.2562 30.0809C15.4474 30.3456 17.1018 29.3529 18.0283 28.6912C19.1533 27.8309 20.2121 27.6985 21.3371 26.8382C21.9989 26.375 22.6607 24.9852 23.0577 24.3235C23.8519 23.1323 23.5871 19.294 22.9254 18.2352C21.5357 16.1837 20.7415 15.2572 19.7489 13.6689C18.9547 12.213 17.7636 10.691 15.7121 11.2204C14.8518 11.4189 14.7856 12.1469 14.6532 12.8748C14.5871 13.4042 14.3223 13.9337 14.19 14.4631C13.462 16.8454 12.9988 18.8969 12.9988 21.4117Z" fill="#FAF6E6"/>
</svg>
