<svg width="132" height="175" viewBox="0 0 132 175" fill="none" xmlns="http://www.w3.org/2000/svg">
<path d="M59.6528 78.812C59.5133 79.038 55.9934 82.1543 48.8286 87.9374C41.6384 93.741 35.2982 96.4744 30.7062 97.9126C18.7088 101.67 10.0542 99.3672 6.13248 97.0653C2.91005 95.1739 2.86236 88.7057 3.07134 76.9553C3.27688 65.3991 8.99001 60.2714 11.8102 57.5919C13.0956 56.3707 18.1034 55.9277 25.4136 55.281C36.8643 54.268 44.1505 58.081 47.8331 60.2133C49.1383 60.969 50.3888 61.8498 51.0878 62.4165C52.5366 63.5913 47.0565 58.1792 42.4016 49.0449C40.9189 46.1353 40.2115 42.3132 39.364 36.1999C37.5527 23.1333 41.3119 18.64 46.0159 12.1807C49.2346 7.76107 55.8232 5.60196 62.8332 3.92457C74.7313 1.07753 81.405 5.52968 85.1746 7.54235C86.6177 8.31286 87.2147 9.849 87.6189 11.0085C90.0036 17.8494 88.6507 31.8705 88.3323 36.2533C87.5631 46.8411 72.7258 55.7568 71.7221 57.0819C70.5459 58.6346 74.7783 52.6435 77.1527 50.3736C81.8206 45.9111 89.0928 40.1586 92.6004 37.2494C96.6216 33.9142 108.204 31.1582 116.713 30.79C119.74 30.6591 121.421 32.8242 122.475 33.6474C126.544 36.8233 128.687 45.9041 128.923 58.5364C129.098 67.8808 124.623 70.9005 118.784 76.8879C110.985 84.8859 105.401 86.0513 99.7302 86.7515C93.1485 87.5641 85.4302 86.0091 79.8137 84.5821C74.2488 83.1682 66.7052 79.7964 61.0737 79.3211C59.2619 79.1682 62.0938 83.8582 61.3493 96.3685C61.003 102.187 58.3876 110.543 56.7324 116.609C54.1124 126.21 52.3111 130.902 51.9935 134.308C51.8867 139.601 52.6283 147.84 53.9192 157.796C54.4695 162.717 54.8068 167.369 54.861 171.895" stroke="#3A1D25" stroke-width="6" stroke-linecap="round" stroke-linejoin="round"/>
<path d="M61.7676 75.3243C60.8826 75.2384 56.2189 71.2919 53.772 67.4721C53.0244 66.305 53.2228 63.9849 53.4512 61.4816C53.8083 57.5668 60.4245 56.8344 64.8453 56.2933C68.2551 55.8759 70.8758 56.5836 72.0381 57.4263C74.6573 59.3252 74.4216 66.2507 72.9589 71.1191C69.8539 74.9846 68.2491 76.232 67.0291 76.7257C66.3641 76.9346 65.6059 77.0591 63.8951 77.1915" stroke="#3A1D25" stroke-width="6" stroke-linecap="round" stroke-linejoin="round"/>
</svg>
