<svg width="924" height="937" viewBox="0 0 924 937" fill="none" xmlns="http://www.w3.org/2000/svg">
<path d="M419.408 1.40796C431.941 -2.54522 446.926 1.86866 452.808 14.114C462.121 28.0884 468.726 44.8679 478.473 59.1506C483.783 66.9347 489.613 87.572 490.848 97.4888C498.643 98.9906 502.475 101.833 507.575 107.782C521.206 123.672 537.531 147.65 540.844 168.531C543.768 168.449 547.127 168.554 550.005 169.024C561.204 170.852 575.466 168.699 584.221 177.088C584.667 177.517 585.101 177.953 585.535 178.397C595.663 187.612 594.224 200.3 589.393 211.616C589.077 212.356 589.196 212.555 589.215 213.448C586.935 220.915 575.23 227.172 568.986 232.879C569.742 237.185 570.169 238.448 568.749 242.694C568.243 244.222 569.906 248.399 569.919 251.17C569.985 264.812 570.991 278.232 566.857 291.397C553.114 305.38 548.205 304.36 534.416 312.901C534.416 320.755 533.548 333.149 534.646 340.709C534.718 341.646 532.503 352.748 531.938 354.024C531.879 357.644 531.702 360.401 531.38 364C540.712 360.538 559.476 357.89 569.663 358.333C572.16 357.314 606.224 358.503 608.899 359.448C621.991 359.325 635.077 359.324 648.169 359.446C673.262 359.32 697.855 364.81 722.527 368.576C736.697 370.74 751.117 370.892 764.662 374.994C767.646 375.899 780.409 380.473 781.658 378.172C782.098 377.359 783.472 375.473 784.077 374.439C784.274 373.777 787.073 369.206 787.639 367.896C789.571 362.304 793.324 357.077 795.617 351.858C802.669 335.798 813.514 317.636 817.976 300.957C818.739 297.185 821.276 290.168 823.3 286.887C823.747 282.647 826.823 276.156 828.42 271.959L840.164 241.775C848.827 219.872 854.827 196.273 871.935 178.718C875.444 175.116 882.003 175.733 884.014 174.804C888.74 172.576 893.459 174.021 898.71 174.87C906.426 180.505 913.136 189.723 916.311 198.764C916.343 199.071 916.376 199.378 916.409 199.686C919.754 211.297 922.541 223.131 923.731 235.227C924.96 247.648 921.549 260.347 920.392 272.631C919.419 282.938 917.993 291.786 915.627 301.913C914.858 305.189 912.946 310.021 912.643 312.02C912.906 315.004 907.076 328.59 905.453 332.447C899.729 356.614 889.114 380.578 878.927 403.246C874.951 412.078 870.068 420.799 865.382 429.257C865.382 429.26 865.875 431.789 865.868 431.791C859.94 440.919 856.095 451.201 851.114 460.838C849.057 464.813 848.656 469.29 845.692 472.658C845.107 473.316 845.258 473.205 845.146 473.881C839.021 485.728 807.29 488.488 795.105 491.13C769.788 496.621 744.308 494.481 718.709 496.559C694.03 498.562 669.719 502.812 645.014 503.857C636.51 504.272 629.425 505.669 620.565 505.232C636.358 521.59 638.258 541.617 628.064 561.957C626.283 565.52 623.477 568.76 621.801 572.526C618.377 580.984 611.581 586.551 605.364 594.109L606.888 597.125C605.265 599.163 605.62 598.026 605.863 600.681C606.409 601.167 607.053 601.746 607.802 602.422C608.236 607.956 609.018 617.085 609.307 622.238C609.773 630.216 609.787 638.215 609.346 646.2C608.867 655.375 607.381 671.194 609.07 680.047C612.389 680.783 613.158 679.232 616.595 679.981C624.515 681.69 632.244 684.463 640.091 686.369L726.122 707.656C741.889 711.711 758.478 713.308 774.139 719.145C779.759 721.235 786.876 722.03 792.594 724.087C799.929 726.821 809.524 730.738 816.051 734.918C822.57 739.091 827.933 745.512 831.469 752.216C836.76 759.445 835.675 762.068 838.797 769.166C846.769 787.292 855.281 809.762 852.362 829.794C849.937 846.481 836.576 866.671 827.914 881.484C826.875 883.259 823.931 885.25 822.702 886.538C820.579 888.753 823.352 888.53 821.151 891.849C819.212 892.657 819.337 892.657 817.247 892.716L816.912 893.025C814.861 898.651 807.264 906.761 801.96 908.746C783.912 915.515 762.007 916.764 742.895 918.505C737.939 918.959 735.823 920.116 730.749 919.945C717.992 919.518 702.889 923.494 689.548 924.742C672.46 926.589 655.503 928.291 638.323 929.284C628.623 929.842 616.747 933.694 607.171 933.851C588.617 934.167 570.774 934.233 552.286 936.73C548.993 937.177 536 935.567 533.732 932.859C533.299 932.254 532.451 930.763 532.07 930.02C529.842 927.562 527.114 925.071 526.069 922.048C495.922 924.94 466.222 921.614 436.075 924.959C430.482 925.584 421.807 923.895 415.688 924.335C387.835 926.346 364.236 934.167 336.391 923.829L335.927 923.671C319.662 929.895 280.622 927.371 262.08 931.144C259.06 931.762 247.019 933.273 244.081 933.214C182.471 932.005 112.979 938.301 55.949 910.389C51.4431 907.773 47.1126 904.862 42.9853 901.681C36.9585 897.041 25.8257 886.538 21.6622 880.341C12.0016 865.961 3.36239 841.571 1.09101 824.543C-1.32824 816.564 0.504115 783.624 4.34429 776.231C4.87599 774.377 5.00413 773.74 5.28871 771.827C5.16844 768.37 7.27024 760.3 7.81771 755.508C12.6713 738.066 21.047 707.058 27.8165 691.14C35.8189 672.318 49.8625 646.989 59.3213 628.192C67.6221 611.696 83.2825 580.583 93.7199 566.354C96.0366 561.76 98.4959 559.026 102.696 556.089L104.153 556.634L105.344 556.259C112.388 551.409 123.429 556.884 130.41 556.489C130.296 552.684 130.841 551.435 131.949 547.9C132.916 544.423 133.463 542.09 135.076 538.81C137.464 531.372 141.158 524.42 143.875 516.919C144.328 515.526 152.172 498.423 153.06 496.764C155.663 490.944 159.988 478.578 163.425 473.717C165.59 466.628 168.804 461.971 171.748 455.473C178.861 439.773 186.888 425.618 197.299 411.823C199.255 409.232 208.634 404.705 210.298 404.553C210.72 406.155 210.47 406.046 211.374 407.261C213.13 404.222 214.864 400.325 215.863 397.301C218.947 387.967 245.475 333.705 251.778 330.936C254.902 327.895 258.427 324.743 260.782 321.124C261.602 318.826 259.601 301.229 259.449 296.979C259.256 290.351 259.29 283.719 259.552 277.094C260.801 250.667 263.236 224.977 270.76 199.636C272.822 192.688 273.214 184.154 275.563 177.222C279.338 166.082 282.843 154.786 287.39 143.943C288.274 142.144 287.837 138.874 288.476 137.172C293.317 124.287 298.795 111.035 307.59 100.288C310.634 96.568 314.606 94.041 317.956 90.8259C328.481 80.7231 340.945 79.4495 354.27 74.3554C356.717 64.7146 374.789 47.0623 380.82 38.7617C386.008 31.0669 391.929 23.3624 397.332 15.9608C405.494 4.78606 408.682 7.48658 419.408 1.40796ZM38.7409 762.422C38.3334 764.572 37.7248 767.319 37.4876 769.442C38.0133 776.126 34.0095 785.386 33.4279 792.497C32.5465 803.295 31.6389 814.054 33.0644 824.917C36.0048 841.354 42.9511 863.01 55.1505 874.906C57.9878 877.672 64.3537 881.491 67.3815 884.139C89.6405 890.16 109.46 896.081 132.679 897.921C138.604 898.395 144.87 900.077 150.933 900.537C167.647 900.07 184.833 900.478 201.57 900.721C209.464 900.839 217.979 901.602 225.777 901.47L226.269 901.115C230.087 901.575 241.602 900.747 245.686 900.346C250.255 900.616 285.343 897.041 290.515 895.864C299.833 895.194 312.834 894.714 321.521 893.709C323.78 892.696 324.398 890.462 326.147 888.234C331.88 880.919 338.248 873.716 344.89 867.236C346.186 865.967 351.681 864.167 353.779 862.747C374.45 848.748 393.566 835.196 417.686 827.546C425.527 825.062 429.983 822.972 438.697 821.717C447.721 815.519 488.673 816.906 500.22 819.798C498.584 812.956 497.21 805.437 494.489 799.03C494.036 794.587 490.802 787.397 493.188 783.651C495.199 780.509 496.06 778.833 497.618 775.383L498.157 773.385C499.99 772.32 499.629 772.734 502.37 773.234L503.362 772.392C504.499 771.413 505.807 770.164 507.332 770.132C513.253 770.02 519.628 770.158 525.504 770.243C537.433 770.401 549.355 770.473 561.277 770.454C565.963 770.473 571.549 770.914 575.926 770.743C578.509 770.079 590.497 770.467 593.671 770.579C599.199 769.008 608.275 769.731 614.039 770.434C621.696 770.138 631.62 769.093 639.368 768.541C645.454 767.463 653.118 766.852 654.82 774.588C656.305 777.716 658.329 781.883 660.262 784.715C658.441 792.201 657.817 793.562 649.562 795.494C651.31 796.066 651.685 796.157 653.512 796.013L654.504 797.051C653.617 798.957 651.402 799.956 649.509 801.113C623.201 802.625 596.846 803.341 570.485 803.262C562.046 803.275 534.357 801.796 528.146 803.242C536.611 835.775 541.442 873.492 550.906 903.613C559.042 903.711 560.928 901.898 568.283 901.602C580.415 901.365 592.206 901.832 604.345 901.043C610.799 900.623 621.761 897.639 627.532 897.534C634.577 897.402 664.389 892.519 669.344 893.768C676.153 891.796 680.945 891.533 687.937 891.625C692.203 891.507 702.423 889.397 707.109 888.779C714.141 887.853 722.212 887.767 728.856 886.039C730.164 885.697 729.454 885.848 731.393 886.611C736.474 884.573 741.278 884.685 746.733 884.415C756.19 884.81 777.011 881.833 785.989 878.796C796.906 875.103 809.57 854.21 813.823 843.904C819.633 828.059 821.755 828.526 820.447 810.735C820.349 808.329 818.975 799.22 818.311 796.854C815.354 786.332 813.816 764.959 804.608 758.781C775.71 740.268 745.622 739.584 714.437 730.889L640.466 710.936C631.837 708.57 622.721 705.599 614.17 702.819C604.503 699.678 584.503 703.95 584.635 690.049L583.314 690.135C572.916 691.975 549.355 689.596 538.438 689.425C527.561 689.248 516.454 691.495 505.728 691.403C495.718 691.311 486.511 687.841 475.857 686.901C463.422 685.804 452 686.658 439.716 686.06C426.059 685.396 410.785 680.632 397.549 676.754C395.123 680.553 394.183 679.961 389.931 680.618L388.663 681.131C381.837 688.065 375.464 682.557 368.883 678.377C365.46 676.728 361.615 675.4 358.543 673.297C348.467 688.912 281.357 708.018 262.53 721.524C260.64 722.878 220.581 746.025 220.072 746.143L218.686 745.302C210.244 744.71 211.483 749.002 204.764 741.306C198.264 733.439 202.452 739.131 200.86 731.474L199.102 731.356L198.643 730.462C199.683 726.006 204.285 714.15 206.342 709.93C208.044 699.697 210.082 692.711 214.021 683.07C214.08 682.905 214.14 682.741 214.199 682.577L214.482 681.742C217.742 672.383 218.464 664.878 220.787 656.15C223.649 645.398 229.621 625.99 234.487 616.001C225.438 612.13 207.92 605.032 198.382 603.08C180.285 599.38 165.377 594.582 147.887 589.206C137.234 586.031 126.321 583.81 115.276 582.555C113.749 583.619 113.038 586.045 112.139 588.003L108.59 592.801C103.15 600.129 99.0072 612.268 95.1605 620.621L65.5202 685.469C62.1204 692.987 57.1321 700.795 54.5616 708.373C52.7746 713.644 51.501 720.807 49.9591 726.394C47.5076 735.273 44.9293 743.527 41.91 752.222C40.3748 756.652 41.8141 757.986 38.7409 762.422ZM353.403 491.022C353.437 490.62 354.097 488.289 354.243 487.744C355.817 480.25 356.577 473 358.198 465.842C358.601 462.24 366.926 423.933 365.68 422.687C356.586 413.597 361.996 361.546 367.772 356.012C369.988 351.344 370.097 349.265 373.073 344.829C367.52 342.518 350.644 343.426 344.316 343.749C335.276 344.21 321.093 348.246 312.407 347.126C325.689 356.751 323 363.924 313.971 376.293C304.498 389.271 294.026 403.078 283.29 415.045C283.12 417.971 282.808 418.356 280.686 420.557C277.954 423.886 275.1 427.494 272.303 430.733C268.758 434.324 265.368 437.077 260.644 438.954C265.348 452.955 263.69 463.143 260.245 476.919C259.228 480.698 255.964 492.997 254.346 496.232C244.296 530.114 262.254 558.303 241.124 584.96L241.919 585.354C252.104 590.349 257.768 586.978 262.919 596.58C266.426 600.004 265.324 602.232 267.326 605.137C269.131 610.664 267.744 611.374 264.85 616.033C265.491 625.064 256.363 641.35 253.175 650.321C251.697 654.474 250.299 666.968 249.657 668.723C249.136 672.042 248.977 673.52 247.734 676.734C247.69 681.972 242.325 696.3 240.059 701.13C243.861 698.633 248.025 697.739 251.874 695.478C268.046 685.968 285.784 679.902 303.321 673.468C306.968 672.127 310.08 669.656 313.765 668.197C320.545 665.516 327.742 663.945 334.225 660.6C326.588 654.363 318.862 648.191 316.997 637.853C313.845 623.782 320.28 611.229 322.878 597.868C325.417 584.822 328.746 572.427 333.669 559.966C336.516 552.756 340.248 532.678 343.825 527.643C344.566 522.246 351.044 495.346 353.403 491.022ZM431.514 25.2216C424.698 25.4234 421.787 26.7359 415.524 29.5797C412.809 34.7993 409.885 38.0046 406.158 42.5236C405.455 44.9054 404.955 45.3365 403.437 47.3903C400.598 53.4617 391.246 64.8848 386.435 69.7548L386.836 70.3503C391.081 67.5807 392.218 69.4255 395.675 67.7056C410.989 60.6596 453.511 72.2082 467.859 79.8155C458.092 64.9157 447.347 51.3284 439.276 35.2587C437.896 32.5122 433.545 28.3691 431.514 25.2216ZM515.646 372.672C512.695 373.692 508.883 374.515 505.741 374.706C493.661 375.441 482.804 380.809 470.849 382.459C460.715 383.858 450.067 383.653 439.9 384.437C436.358 384.71 431.369 384.617 428.931 386.605C428.425 387.018 428.057 390.376 427.978 391.006L427.143 391.652L423.358 389.273C422.937 391.734 425.487 389.75 423.614 391.883C422.398 391.115 421.452 390.452 420.111 389.901C418.494 390.684 417.462 391.611 415.708 391.917L413.25 392.468C410.765 389.871 413.158 379.764 412.888 375.034C401.682 388.534 396.273 428.903 391.259 447.02C388.893 461.801 387.513 476.711 384.095 491.311C382.347 498.79 380.391 506.215 378.636 513.692C376.447 523.019 375.337 533.368 371.973 542.339C365.854 558.645 364.993 576.37 356.975 591.933C355.947 593.925 355.949 603.796 355.011 606.563C353.951 612.793 346.256 631.09 348.995 635.947C350.076 636.861 354.204 639.385 354.417 639.641C361.619 642.309 362.143 642.684 369.99 644.596L370.602 646.995C372.994 647.764 373.656 646.581 376.18 646.174C377.978 645.884 382.397 650.813 383.74 650.912C392.849 651.563 393.336 649.354 402.451 652.818C411.278 652.943 424.994 659.647 435.628 660.179C458.013 661.303 478.249 658.595 499.833 665.746C503.224 666.869 516.704 665.213 521.186 665.706C528.941 665.338 536.848 664.957 544.616 664.95C548.086 664.95 551.425 665.581 554.994 665.66C565.01 664.707 562.894 665.042 571.996 665.746C575.387 665.404 578.858 664.898 582.242 664.444C582.19 659.601 583.563 639.792 584.49 635.067C584.313 628.304 584.155 622.54 584.477 615.764C584.28 609.415 583.366 589.705 580.179 585.538C583.458 574.451 589.051 573.682 595.814 565.875C604.226 556.161 615.386 538.015 608.676 524.838C604.871 517.361 598.811 515.606 591.457 513.35C589.623 510.594 588.532 508.514 585.923 506.478C561.605 505.947 527.699 508.658 510.263 488.567C498.222 479.112 485.15 454.918 482.607 440.139C480.201 421.182 485.729 409.784 495.311 394.738C502.291 383.777 510.697 381.144 516.046 373.789L515.646 372.672ZM471.664 112.843L473.031 113.042C472.249 117.497 464.02 122.692 460.393 124.806C459.453 126.009 459.282 126.313 458.184 127.358C458.276 127.95 458.375 128.543 458.467 129.136C457.448 130.685 457.277 130.821 455.943 132.135C455.016 135.737 451.329 146.044 451.973 148.485C452.506 153.07 452.361 160.492 449.68 164.444C449.022 168.935 446.058 190.528 446.433 193.848L446.9 195.652C447.248 205.212 443.745 201.747 446.164 211.75C445.105 212.05 443.344 212.489 442.391 212.874C442.135 214.777 442.384 214.431 441.576 216.031L440.354 218.169C441.425 219.394 440.768 218.902 442.641 219.256C437.219 223.562 409.457 217.69 394.315 230.837C397.384 237.454 398.659 241.275 406.211 244.147C414.373 247.251 425.264 244.914 430.725 252.545C437.915 260.933 438.855 307.808 443.318 324.187C444.106 328.51 444.047 331.308 444.1 335.694C436.193 344.837 445.559 346.098 426.841 346.138C425.31 352.199 428.563 357.144 426.611 362.568C426.828 364.073 426.565 363.571 427.406 364.718C432.243 365.338 437.869 364.035 442.851 363.783C450.777 363.38 458.112 363.504 465.992 362.472C475.975 361.165 497.486 355.98 506.957 356.404C507.857 349.314 510.039 340.59 510.499 333.523C511.052 322.626 507.456 312.079 512.103 301.483C512.819 299.847 512.925 300.048 513.286 298.126C517.006 294.898 519.898 292.491 524.143 290.125C530.374 286.65 541.829 283.822 545.319 277.332C550.11 268.404 547.166 236.15 544.807 227.102C550.61 220.07 545.451 218.451 555.835 214.043C558.746 212.809 568.316 203.318 571.332 200.833C571.727 200.507 572.719 196.851 572.943 195.99L570.846 195.462C557.399 194.293 543.808 194.12 530.578 190.934C526.227 189.885 525.07 189.842 522.836 186.114C519.306 181.892 517.985 165.604 514.581 158.228C509.192 146.565 501.555 128.799 491.565 120.608C490.566 119.786 474.319 111.8 472.242 110.9L471.664 112.843ZM354.723 900.899C358.212 900.189 370.032 902.535 374.369 901.437C394.137 896.429 413.44 893.847 433.873 894.438C441.011 894.648 448.253 893.472 455.588 893.643C459.032 892.854 460.997 893.656 463.573 893.347C472.696 892.256 491.131 894.556 499.031 893.163C502.383 892.276 511.728 892.44 515.613 892.44L513.404 882.516C509.27 868.254 508.416 851.988 504.834 839.205C492.774 840.349 480.517 839.554 468.397 840.678C451.25 842.261 436.923 848.604 421.182 854.479C406.316 860.026 399.06 864.686 385.62 873.157C372.815 881.235 362.861 886.808 352.067 897.856C353.118 899.466 353.187 900.07 354.723 900.899ZM399.77 351.505C403.036 347.717 403.943 348.894 408.13 346.662L408.629 346.391C409.024 345.857 409.333 345.81 409.996 345.437C412.481 346.059 413.013 346.369 415.445 345.908L415.602 344.137C411.12 341.566 387.105 344.628 378.359 344.277C381.286 346.138 383.243 346.92 383.766 350.533C384.312 354.278 383.53 362.869 382.672 366.5C381.964 368.026 381.74 372.091 381.074 374.674L380.906 375.311L381.439 376.401L380.775 375.681L380.651 376.087L381.141 376.773L380.777 377.113C382.592 375.429 398.245 353.833 399.77 351.505ZM296.599 350.5C297.968 349.262 298.578 349.159 298.955 347.686C290.979 344.445 276.372 351.163 269.095 343.832L267.634 342.514C262.728 344.808 242.954 400.828 239.212 410.089L243.89 416.385C257.018 410.549 256.506 404.826 264.088 393.479C267.116 388.947 271.62 384.483 274.901 380.042C278.957 374.439 292.17 353.662 296.599 350.5ZM215.296 428.558C211.144 441.276 205.429 454.299 200.693 466.879C198.851 471.771 196.068 475.559 193.869 480.234C190.127 492.685 183.952 504.244 178.453 516.043C174.81 523.861 172.27 532.034 168.855 539.592C167.105 544.791 160.419 559.723 161.122 563.739C161.526 564.028 161.929 564.323 162.333 564.613C172.949 565.014 183.418 569.016 193.972 570.278C197.867 568.116 203.168 565.329 207.555 568.444C207.397 569.969 206.816 570.62 206.016 571.96C206.522 574.353 207.946 574.451 210.153 575.457C213.906 573.735 215.221 565.553 218.02 562.51C222.737 543.181 218.91 530.309 219.353 510.659C219.549 506.929 219.28 499.656 220.496 496.091C225.761 480.654 232.138 465.048 234.295 448.747C235.299 441.161 225.268 440.97 222.258 436.816C219.038 432.374 219.604 432.565 215.296 428.558ZM875.451 210.931C873.683 217.752 868.425 227.963 867.373 233.476C863.463 253.952 855.018 273.139 849.806 292.901C848.629 296.699 846.691 303.392 845.133 306.881C840.204 324.348 831.831 339.498 824.121 355.706C818.371 367.796 814.375 379.338 806.488 390.571C802.157 396.748 802.301 404.25 793.639 407.111C794.099 408.177 794.349 408.751 794.678 409.861C793.455 411.189 792.213 411.828 790.682 412.781C783.774 408.33 777.57 406.921 769.65 404.901C764.36 403.912 757.643 400.761 752.444 400.187C722.166 396.838 692.216 390.047 662.043 386.633C645.711 384.786 628.274 386.721 611.949 386.396C596.964 386.099 582.045 384.761 567.014 385.444C556.026 386.005 541.139 388.371 531.353 393.925C531.419 393.887 521.85 393.29 520.66 393.245C519.201 394.916 516.546 399.086 515.389 400.092C503.086 410.798 505.235 417.014 502.935 432.029C502.928 443.765 508.068 449.444 513.155 459.967C530.742 479.626 541.277 480.086 566.462 480.964C574.007 481.227 583.051 479.213 590.3 481.07C595.163 480.187 602.794 480.516 608.098 480.143C616.747 479.536 627.742 477.773 636.325 478.236C645.494 476.076 670.304 474.419 681.359 472.878C680.945 473.084 723.434 467.651 726.661 467.332C738.025 466.68 750.788 467.172 761.751 465.656C764.892 465.381 770.801 465.692 773.936 465.1C785.923 462.835 813.349 459.032 822.669 453.338C825.922 451.352 838.311 424.502 840.644 419.564C845.172 407.805 853.388 396.18 858.093 384.685C864.028 370.172 869.312 355.714 876.535 341.622C878.684 337.427 880.084 329.816 881.839 325.017C886.052 313.498 890.048 301.596 893.163 289.711C895.417 277.628 898.151 262.181 899.354 250.002C899.242 247.954 900.563 236.432 900.695 232.65C896.62 225.381 901.516 215.358 891.665 201.646L891.283 200.854C889.351 198.095 890.192 198.507 887.485 197.215C881.392 197.696 878.435 206.022 875.451 210.931Z" fill="#060605"/>
</svg>
